<?xml version="1.0" standalone="no"?>
<!DOCTYPE svg PUBLIC "-//W3C//DTD SVG 20010904//EN"
 "http://www.w3.org/TR/2001/REC-SVG-20010904/DTD/svg10.dtd">
<svg version="1.0" xmlns="http://www.w3.org/2000/svg"
 width="500.000000pt" height="500.000000pt" viewBox="0 0 500.000000 500.000000"
 preserveAspectRatio="xMidYMid meet">
<metadata>
Created by potrace 1.11, written by Peter Selinger 2001-2013
</metadata>
<g transform="translate(0.000000,500.000000) scale(0.100000,-0.100000)"
fill="#000000" stroke="none">
<path d="M0 2500 l0 -2500 2500 0 2500 0 0 2500 0 2500 -2500 0 -2500 0 0
-2500z m4770 0 l0 -2270 -2270 0 -2270 0 0 2270 0 2270 2270 0 2270 0 0 -2270z"/>
<path d="M1086 4373 c-22 -12 -77 -18 -210 -24 -227 -10 -228 -11 -220 -58 9
-53 49 -138 71 -149 10 -6 59 -17 108 -26 50 -9 102 -19 117 -22 29 -6 53 -52
84 -164 19 -66 23 -243 17 -690 -1 -85 0 -204 4 -264 4 -76 2 -110 -6 -115 -8
-6 -7 -26 5 -77 20 -81 24 -310 7 -474 -7 -71 -7 -128 0 -175 12 -88 12 -85
-2 -238 -10 -98 -10 -172 -2 -305 7 -107 8 -198 3 -230 -7 -43 -6 -60 8 -86
16 -33 16 -34 -12 -65 -34 -38 -34 -42 -7 -157 13 -53 19 -101 15 -117 -10
-43 -58 -89 -161 -157 -66 -44 -93 -66 -85 -74 17 -17 12 -32 -15 -44 -15 -7
-25 -20 -25 -32 0 -20 5 -20 478 -20 368 0 505 3 592 15 62 8 116 17 118 20
10 10 -19 82 -42 104 -20 19 -41 24 -133 32 -59 5 -113 11 -119 13 -13 5 -27
79 -51 256 -12 89 -17 254 -20 728 l-5 612 51 0 c33 0 62 7 83 20 40 24 85 25
173 5 61 -14 69 -14 91 0 35 23 61 18 107 -19 31 -24 55 -35 91 -39 43 -4 55
-11 93 -53 32 -35 40 -49 31 -55 -9 -6 -4 -9 13 -9 15 0 31 -6 36 -12 6 -7 25
-69 43 -138 17 -69 63 -212 101 -319 38 -106 69 -201 69 -210 0 -9 -7 -25 -15
-35 -19 -25 -19 -70 0 -143 8 -31 13 -65 10 -74 -3 -9 20 -94 51 -190 30 -96
59 -185 63 -199 6 -19 17 -27 52 -33 l44 -9 -29 -23 c-16 -13 -26 -28 -22 -34
4 -6 34 -25 67 -42 33 -16 57 -33 55 -38 -10 -15 39 -50 113 -81 69 -28 83
-30 197 -30 l124 0 6 28 c3 15 8 33 10 40 7 23 -13 48 -83 102 -38 29 -78 65
-90 79 -35 40 -61 137 -73 273 -11 124 -22 185 -39 231 -6 16 -6 47 2 90 9 54
7 96 -13 263 -21 174 -27 203 -48 231 -13 18 -35 70 -48 115 -13 47 -31 87
-41 93 -43 26 -96 83 -129 139 -62 103 -132 164 -175 153 -16 -4 -59 28 -48
36 2 2 58 36 123 77 141 87 206 145 206 183 0 28 17 36 36 17 22 -22 64 32
128 163 61 125 65 138 81 260 22 162 17 409 -10 510 -15 59 -20 67 -41 67 -29
0 -32 17 -3 22 19 3 19 7 -20 83 -44 88 -126 193 -189 244 l-41 32 -41 -21
c-39 -20 -54 -14 -25 10 24 20 18 36 -26 74 -96 82 -194 103 -402 88 -98 -8
-157 -8 -192 -1 -83 17 -293 22 -380 9 -71 -10 -95 -9 -205 9 -139 23 -216 26
-273 10 -34 -9 -41 -7 -81 21 -25 16 -46 30 -48 30 -2 -1 -16 -8 -32 -17z m44
-48 c0 -8 -7 -15 -15 -15 -8 0 -15 7 -15 15 0 8 7 15 15 15 8 0 15 -7 15 -15z
m660 -90 c0 -8 -9 -15 -20 -15 -11 0 -20 7 -20 15 0 8 9 15 20 15 11 0 20 -7
20 -15z m-530 -10 c0 -8 -7 -15 -15 -15 -8 0 -15 7 -15 15 0 8 7 15 15 15 8 0
15 -7 15 -15z m710 -10 c0 -8 -4 -15 -10 -15 -5 0 -10 7 -10 15 0 8 5 15 10
15 6 0 10 -7 10 -15z m-1210 -5 c0 -5 -7 -10 -15 -10 -8 0 -15 5 -15 10 0 6 7
10 15 10 8 0 15 -4 15 -10z m1525 -50 c-3 -5 -14 -10 -23 -9 -14 0 -13 2 3 9
27 11 27 11 20 0z m-98 -82 c23 -8 80 -46 127 -84 82 -66 87 -73 116 -147 116
-296 128 -585 36 -854 -14 -41 -20 -76 -16 -83 6 -9 -10 -34 -47 -76 -76 -86
-153 -150 -162 -135 -5 7 -20 2 -47 -19 l-39 -29 -262 -1 -263 0 0 710 0 710
48 1 c26 0 92 7 147 14 125 17 305 13 362 -7z m323 -33 c0 -8 -7 -15 -15 -15
-8 0 -15 7 -15 15 0 8 7 15 15 15 8 0 15 -7 15 -15z m-1100 -150 c0 -8 -7 -15
-15 -15 -8 0 -15 7 -15 15 0 8 7 15 15 15 8 0 15 -7 15 -15z m1340 -20 c0 -8
-4 -15 -10 -15 -5 0 -10 7 -10 15 0 8 5 15 10 15 6 0 10 -7 10 -15z m30 -85
c0 -5 -9 -10 -20 -10 -11 0 -20 5 -20 10 0 6 9 10 20 10 11 0 20 -4 20 -10z
m-1330 -125 c0 -8 -4 -15 -10 -15 -5 0 -10 7 -10 15 0 8 5 15 10 15 6 0 10 -7
10 -15z m1590 -45 c0 -5 -7 -10 -15 -10 -8 0 -15 5 -15 10 0 6 7 10 15 10 8 0
15 -4 15 -10z m-1840 -67 c-1 -10 -7 -29 -15 -43 -14 -25 -14 -24 -15 18 0 31
4 42 15 42 8 0 15 -8 15 -17z m1530 -18 c0 -8 -7 -15 -15 -15 -8 0 -15 7 -15
15 0 8 7 15 15 15 8 0 15 -7 15 -15z m-130 -20 c0 -8 -4 -15 -10 -15 -5 0 -10
7 -10 15 0 8 5 15 10 15 6 0 10 -7 10 -15z m430 -105 c0 -5 -7 -10 -15 -10 -8
0 -15 5 -15 10 0 6 7 10 15 10 8 0 15 -4 15 -10z m-310 -50 c0 -5 -9 -10 -20
-10 -11 0 -20 5 -20 10 0 6 9 10 20 10 11 0 20 -4 20 -10z m-1500 -15 c0 -8
-7 -15 -15 -15 -8 0 -15 7 -15 15 0 8 7 15 15 15 8 0 15 -7 15 -15z m1860 -85
c0 -5 -7 -10 -15 -10 -8 0 -15 5 -15 10 0 6 7 10 15 10 8 0 15 -4 15 -10z
m-440 -25 c0 -8 -4 -15 -10 -15 -5 0 -10 7 -10 15 0 8 5 15 10 15 6 0 10 -7
10 -15z m80 -60 c0 -8 -9 -15 -20 -15 -11 0 -20 7 -20 15 0 8 9 15 20 15 11 0
20 -7 20 -15z m10 -135 c0 -5 -7 -10 -15 -10 -8 0 -15 5 -15 10 0 6 7 10 15
10 8 0 15 -4 15 -10z m-1180 -30 c0 -5 -4 -10 -10 -10 -5 0 -10 5 -10 10 0 6
5 10 10 10 6 0 10 -4 10 -10z m1270 -30 c0 -5 -7 -10 -15 -10 -8 0 -15 5 -15
10 0 6 7 10 15 10 8 0 15 -4 15 -10z m-70 -45 c0 -8 -4 -15 -10 -15 -5 0 -10
7 -10 15 0 8 5 15 10 15 6 0 10 -7 10 -15z m-1400 -250 c0 -8 -7 -15 -15 -15
-8 0 -15 7 -15 15 0 8 7 15 15 15 8 0 15 -7 15 -15z m180 -90 c0 -8 -9 -15
-20 -15 -11 0 -20 7 -20 15 0 8 9 15 20 15 11 0 20 -7 20 -15z m-110 -250 c0
-8 -7 -15 -15 -15 -8 0 -15 7 -15 15 0 8 7 15 15 15 8 0 15 -7 15 -15z m120
-25 c0 -11 -4 -20 -10 -20 -5 0 -10 9 -10 20 0 11 5 20 10 20 6 0 10 -9 10
-20z m-380 -210 c0 -5 -7 -10 -15 -10 -8 0 -15 5 -15 10 0 6 7 10 15 10 8 0
15 -4 15 -10z m1620 -190 c0 -5 -7 -10 -15 -10 -8 0 -15 5 -15 10 0 6 7 10 15
10 8 0 15 -4 15 -10z m-1640 -45 c0 -8 -7 -15 -15 -15 -8 0 -15 7 -15 15 0 8
7 15 15 15 8 0 15 -7 15 -15z m1460 -150 c0 -8 -4 -15 -10 -15 -5 0 -10 7 -10
15 0 8 5 15 10 15 6 0 10 -7 10 -15z m230 -40 c0 -8 -4 -15 -10 -15 -5 0 -10
7 -10 15 0 8 5 15 10 15 6 0 10 -7 10 -15z m-1340 -110 c0 -8 -9 -15 -20 -15
-11 0 -20 7 -20 15 0 8 9 15 20 15 11 0 20 -7 20 -15z m-152 -14 c3 -8 -1 -12
-9 -9 -7 2 -15 10 -17 17 -3 8 1 12 9 9 7 -2 15 -10 17 -17z m1372 -11 c0 -5
-7 -10 -15 -10 -8 0 -15 5 -15 10 0 6 7 10 15 10 8 0 15 -4 15 -10z m260 -100
c0 -5 -7 -10 -15 -10 -8 0 -15 5 -15 10 0 6 7 10 15 10 8 0 15 -4 15 -10z
m-180 -150 c0 -11 -4 -20 -10 -20 -5 0 -10 9 -10 20 0 11 5 20 10 20 6 0 10
-9 10 -20z m-1480 -85 c0 -8 -4 -15 -10 -15 -5 0 -10 7 -10 15 0 8 5 15 10 15
6 0 10 -7 10 -15z m1730 -20 c0 -8 -7 -15 -15 -15 -8 0 -15 7 -15 15 0 8 7 15
15 15 8 0 15 -7 15 -15z m-1835 -82 c-10 -58 -25 -64 -25 -10 0 37 4 47 16 47
13 0 15 -7 9 -37z m385 22 c0 -8 -7 -15 -15 -15 -8 0 -15 7 -15 15 0 8 7 15
15 15 8 0 15 -7 15 -15z m1180 -35 c0 -5 -4 -10 -10 -10 -5 0 -10 5 -10 10 0
6 5 10 10 10 6 0 10 -4 10 -10z m-1330 -55 c0 -8 -7 -15 -15 -15 -8 0 -15 7
-15 15 0 8 7 15 15 15 8 0 15 -7 15 -15z m-60 -60 c0 -8 -7 -15 -15 -15 -8 0
-15 7 -15 15 0 8 7 15 15 15 8 0 15 -7 15 -15z m1660 -25 c0 -5 -7 -10 -15
-10 -8 0 -15 5 -15 10 0 6 7 10 15 10 8 0 15 -4 15 -10z m-1632 -87 c-2 -10
-14 -20 -28 -22 -25 -3 -25 -3 -6 18 23 26 39 27 34 4z m-288 -58 c0 -8 -7
-15 -15 -15 -8 0 -15 7 -15 15 0 8 7 15 15 15 8 0 15 -7 15 -15z m470 -50 c0
-8 -7 -15 -15 -15 -8 0 -15 7 -15 15 0 8 7 15 15 15 8 0 15 -7 15 -15z m150 0
c0 -8 -7 -15 -15 -15 -8 0 -15 7 -15 15 0 8 7 15 15 15 8 0 15 -7 15 -15z
m-80 -9 c0 -2 -8 -10 -17 -17 -16 -13 -17 -12 -4 4 13 16 21 21 21 13z"/>
</g>
</svg>
